PathFileType	4	(X/Y/Z)	Patient5_TMGait_0pt45_1_right_09.trc.trc
DataRate	CameraRate	NumFrames	NumMarkers	Units	OrigDataRate	OrigDataStartFrame	OrigNumFrames
58.091286307054	58.091286307054	4	32	mm	58.091286307054	106	       141
Frame#	Time	R.ASIS			L.ASIS			Chest			R.Shoulder			Neck			L.Shoulder			L.Elbow			L.Wrist			R.Elbow			R.Wrist			L.Thigh.Superior			L.Thigh.Lateral			L.Thigh.Inferior			L.Patella			L.Shank.Superior			L.Shank.Lateral			L.Shank.Inferior			L.Heel			L.Midfoot.Lateral			L.Midfoot.Superior			L.Toe			R.Thigh.Superior			R.Thigh.Lateral			R.Thigh.Inferior			R.Patella			R.Shank.Superior			R.Shank.Lateral			R.Shank.Inferior			R.Heel			R.Midfoot.Lateral			R.Midfoot.Superior			R.Toe			
		X1	Y1	Z1	X2	Y2	Z2	X3	Y3	Z3	X4	Y4	Z4	X5	Y5	Z5	X6	Y6	Z6	X7	Y7	Z7	X8	Y8	Z8	X9	Y9	Z9	X10	Y10	Z10	X11	Y11	Z11	X12	Y12	Z12	X13	Y13	Z13	X14	Y14	Z14	X15	Y15	Z15	X16	Y16	Z16	X17	Y17	Z17	X18	Y18	Z18	X19	Y19	Z19	X20	Y20	Z20	X21	Y21	Z21	X22	Y22	Z22	X23	Y23	Z23	X24	Y24	Z24	X25	Y25	Z25	X26	Y26	Z26	X27	Y27	Z27	X28	Y28	Z28	X29	Y29	Z29	X30	Y30	Z30	X31	Y31	Z31	X32	Y32	Z32	

106	16.397500000000	1010.144362388041	1010.657147594727	541.602607944953	1024.995597194597	962.392103909035	306.627038805938	1072.107765039026	1446.698803106751	422.084482056247	943.721316678244	1517.157214994888	565.330256772930	955.373275496900	1568.467358556102	379.183666605187	1052.646649999443	1505.020857947906	218.901423628328	1070.806784335179	1171.710675611648	110.359625922261	1220.257757482866	934.458413676687	182.759059353771	837.114332764615	1202.414866186210	700.392287051969	1065.567397038135	1024.526284046785	675.222792747884	1033.581862205293	736.841673929119	321.094075925005	954.368897888842	668.445869735351	281.053354131754	1015.478523193496	607.060889471826	349.709438704510	1005.073478621910	492.830164883479	363.336666259591	947.204044808344	392.653877007183	385.825909413242	880.807529269199	327.923308629979	307.747899139251	900.612060775637	276.047673643907	399.835890161146	743.492222434122	51.425329941142	400.580672964772	834.152995588136	28.950973939172	343.318388435044	929.321985160113	87.993512524960	392.284656440342	1037.055117826081	43.887891755232	398.734625271338	1088.188330760768	816.304104225719	593.792006069817	1037.099703625351	727.671757774242	659.482540057250	1130.739423211679	693.287436520431	592.571418720776	1164.325163702142	600.882598646213	638.585694671497	1128.952244600036	485.660654005512	610.981932110062	1056.731802027902	419.803753000490	693.791585696562	1116.178478307539	346.258050563503	619.379791346941	1003.867831266537	118.030749310182	601.323240466519	1082.562537724356	85.693160982269	674.038378588599	1185.991480267964	156.854997324891	660.433971302973	1290.641418129812	117.222919185376	658.942177201813	
107	16.414714285714	1008.857310490458	1009.410654570279	541.612961332014	1022.104070734289	962.172068076611	306.537040881958	1067.876541415098	1446.671171772603	423.056864595582	940.077570412776	1516.171750936461	567.344649705034	950.294275878619	1567.965921857203	381.205828856512	1046.655079872716	1505.224739989788	219.982912897342	1063.551316310890	1171.881174114146	110.867381249136	1211.302436700593	933.323258030003	182.584088266893	835.292317585445	1201.122678797256	703.037574892940	1063.437876362108	1023.095629780176	676.157624788196	1030.216073374143	736.186137714351	321.013570247801	950.475240570727	668.040248812217	281.328293176124	1011.440674211768	606.488359861299	349.594483835320	1000.255705195109	492.071351071740	363.213451993402	941.626081727312	392.176883879192	385.847598071424	874.861082039262	327.870632110074	307.895886675611	894.362046602722	275.891554313239	399.956537320085	735.806193555849	51.746395959098	400.777534006314	826.408099817353	29.218585394776	343.474215654791	921.651050013893	88.082943429004	392.356803511329	1029.310443433474	43.858814880614	398.722772181336	1086.759977389765	814.033493142869	591.366863014845	1035.817245896840	725.403531703770	657.716311643591	1128.206121573761	690.601286557183	589.376390540451	1161.977060942238	598.347759791403	634.971406034395	1127.162574314978	483.410899713646	607.933870063867	1056.328160410079	416.972229904740	691.492753086977	1115.695169650544	343.856077983555	616.626731255519	1005.414792002401	114.615623595083	599.654425780711	1085.015411083686	83.123048949281	671.768523403886	1187.637134424924	155.221081824305	657.216263598058	1292.630435591070	116.556478878037	654.916960084202	
108	16.431928571429	1007.529973416600	1008.186368971922	541.787759492841	1019.191340472916	961.962805416678	306.546476598182	1063.811142036268	1446.642486144318	424.166905826566	936.660078487045	1515.222407921247	569.516637055566	945.367060467464	1567.484432999404	383.383540127245	1040.774337516126	1505.410994772236	221.191167572939	1056.166252824913	1172.086018384973	111.363583908199	1202.136830790945	932.089430921966	182.059444999143	833.577329863429	1199.896227317025	705.770569779113	1061.241407849325	1021.545771755783	676.927124086721	1026.757610082486	735.551060916186	320.787280472060	946.534547621416	667.714488978909	281.592003732692	1007.510332910751	606.094027446688	349.456022472376	995.380235716269	491.383392014437	363.015758742531	936.002884504910	391.789540996188	385.803417957241	868.850984904894	327.896336174735	307.993111596913	888.097192678384	275.808243299973	400.007237687830	728.135715294354	52.177858296055	400.960407717050	818.672648810571	29.555463128435	343.613722010933	914.012827954797	88.160706302678	392.416394634322	1021.561141101480	43.825538199628	398.706206936936	1084.790836773387	811.446724756085	589.137771575541	1033.768501753746	722.863125128357	656.041160986260	1124.960456407197	687.615428806159	586.383893744164	1158.760562880552	595.529809778927	631.548487271800	1124.760857332020	480.968522318496	604.923639280480	1055.190047705186	413.814612437499	689.073431767461	1114.740615612769	341.233670255676	613.839109123941	1006.860446627638	110.838772990761	597.655772074951	1087.271111420960	80.252124226561	669.273957973180	1188.999848223296	153.425205778231	654.018304263985	1294.387024062250	115.872031270290	651.062590638938	
109	16.449142857143	1006.146044283313	1007.000395279367	542.133755242657	1016.243885754882	961.770258298043	306.663390564697	1059.925096167535	1446.610807838172	425.425673792504	933.481067057366	1514.308985562051	571.853113793717	940.622318709182	1567.031233772129	385.726276638206	1035.044784758414	1505.595995180641	222.543039966915	1048.680816709405	1172.347275981499	111.859721215213	1192.791653791261	930.793685376104	181.217520888590	831.936870365363	1198.723526096855	708.555612401014	1059.006326113075	1019.946299005304	677.551861643382	1023.234725345654	734.983233602155	320.483876589754	942.561966399780	667.478122875825	281.830556001800	1003.666230745950	605.864793414840	349.316031785303	990.452353426715	490.773133411339	362.761060734177	930.362067190494	391.491739440636	385.699314999117	862.785683685003	328.009863548860	308.031489613544	881.817106199209	275.800189770362	399.986340335033	720.480661273984	52.732834815143	401.108090087342	810.948605014596	29.953239622069	343.728927279018	906.409152041248	88.235480224602	392.448243768492	1013.801939943238	43.787505751998	398.688364688510	1082.336385888917	808.625358262116	587.169099660957	1031.012986531934	720.114167742070	654.504982894210	1121.116106096122	684.442727187276	583.672569955821	1154.788316259605	592.524097744691	628.387884240627	1121.808608662175	478.407701818833	601.984676420867	1053.345361176971	410.429616679092	686.535208312794	1113.332092775737	338.488065300952	611.014766826404	1008.111160463708	106.866003796168	595.234925099718	1089.202978241743	77.175183043285	666.473916422426	1189.998577865379	151.515217358767	650.798622559874	1295.810301134766	115.171549112563	647.356601780680	
